<svg xmlns="http://www.w3.org/2000/svg" viewBox="0 0 640 220" role="img" aria-labelledby="title desc">
<title id="title">Texas rig diagram</title><desc id="desc">Fishing line passes through a bullet weight to an offset hook rigged weedless through a soft plastic worm.</desc>
<rect width="640" height="220" fill="#fbf7f0"/>
<path d="M36 90H246" stroke="#30231b" stroke-width="4" stroke-linecap="round"/>
<path d="M246 90l42-28v56z" fill="#8b6a55" stroke="#30231b" stroke-width="3"/>
<path d="M289 90H370" stroke="#30231b" stroke-width="4" stroke-linecap="round"/>
<path d="M371 90c16 0 25 13 25 28 0 18-15 31-34 31-18 0-31-11-31-26 0-10 8-18 19-18h78" fill="none" stroke="#30231b" stroke-width="4" stroke-linecap="round"/>
<path d="M395 105c46-12 112-10 176 8 18 5 24 20 7 29-49 25-121 22-182 1-18-6-19-31-1-38z" fill="#c65a34" opacity=".92"/>
<circle cx="560" cy="124" r="3.5" fill="#30231b"/>
<text x="36" y="55" font-family="system-ui,sans-serif" font-size="16" fill="#6b5749">line</text>
<text x="238" y="46" font-family="system-ui,sans-serif" font-size="16" fill="#6b5749">bullet weight</text>
<text x="332" y="183" font-family="system-ui,sans-serif" font-size="16" fill="#6b5749">offset hook</text>
<text x="473" y="183" font-family="system-ui,sans-serif" font-size="16" fill="#6b5749">soft plastic</text>
</svg>