<svg xmlns="http://www.w3.org/2000/svg" viewBox="0 0 1600 1067" role="img" aria-labelledby="title desc"><title id="title">Texas home foundation in clay soil</title><desc id="desc">Editorial cutaway illustration of a Texas house on expansive clay soil with heat, drought cracks and a slab foundation.</desc><defs><linearGradient id="sky" x1="0" y1="0" x2="0" y2="1"><stop stop-color="#80b7d3"/><stop offset="1" stop-color="#f4d4a0"/></linearGradient><linearGradient id="soil" x1="0" y1="0" x2="0" y2="1"><stop stop-color="#aa744b"/><stop offset="1" stop-color="#5d3829"/></linearGradient><radialGradient id="sun"><stop stop-color="#fff8c5"/><stop offset=".45" stop-color="#f5b745"/><stop offset="1" stop-color="#f5b745" stop-opacity="0"/></radialGradient></defs><rect width="1600" height="1067" fill="url(#sky)"/><circle cx="1330" cy="160" r="220" fill="url(#sun)"/><rect y="620" width="1600" height="447" fill="url(#soil)"/><path d="M275 625V390h780v235" fill="#efe6d4"/><path d="m215 405 450-255 470 255z" fill="#765448"/><rect x="405" y="445" width="140" height="180" fill="#8da4a8"/><rect x="760" y="430" width="170" height="195" fill="#9eb2bd"/><rect x="235" y="608" width="900" height="72" rx="8" fill="#c5c7c6"/><path d="M235 680h900" stroke="#8f9697" stroke-width="10"/><g stroke="#3b271f" stroke-width="13" fill="none" stroke-linecap="round"><path d="M110 750c90 5 75 85 155 95 75 10 60 95 150 105"/><path d="M550 735c60 30 40 85 110 125 75 44 40 90 125 140"/><path d="M1200 720c-70 55-25 110-110 150-50 25-35 85-95 120"/></g><g stroke="#e0ab70" stroke-width="8" opacity=".75"><path d="M20 700h210"/><path d="M1040 700h500"/><path d="M30 800h140"/></g><path d="M1135 610c80-75 190-75 270 0" fill="none" stroke="#70864b" stroke-width="30"/><circle cx="1270" cy="535" r="70" fill="#6d8c4f"/><path d="M1180 642v160" stroke="#55402f" stroke-width="24"/></svg>