<svg xmlns="http://www.w3.org/2000/svg" viewBox="0 0 1200 675" role="img" aria-labelledby="t d"><title id="t">Generic Dallas university-area boutique hotel illustration</title><desc id="d">AI-generated area illustration, not a depiction of the hotel property.</desc><defs><linearGradient id="s" x1="0" y1="0" x2="0" y2="1"><stop stop-color="#cbdce5"/><stop offset="1" stop-color="#f2c7a6"/></linearGradient></defs><rect width="1200" height="675" fill="url(#s)"/><rect y="486" width="1200" height="189" fill="#c9b79b"/><circle cx="115" cy="150" r="100" fill="#4f6f5b"/><circle cx="1080" cy="160" r="95" fill="#5e765f"/><rect x="102" y="230" width="27" height="300" fill="#6e5540"/><rect x="1068" y="230" width="27" height="300" fill="#6e5540"/><rect x="245" y="165" width="710" height="365" rx="9" fill="#d8c5ad"/><rect x="285" y="205" width="630" height="58" fill="#9b8068"/><g fill="#455960"><rect x="295" y="300" width="90" height="88"/><rect x="420" y="300" width="90" height="88"/><rect x="690" y="300" width="90" height="88"/><rect x="815" y="300" width="90" height="88"/></g><rect x="520" y="285" width="160" height="245" fill="#684f45"/><rect x="558" y="337" width="84" height="193" fill="#d9b676"/><path d="M430 500h340l-56-90H486z" fill="#3f3a38"/><rect x="458" y="488" width="285" height="22" fill="#2f2c2a"/><g fill="#7c8a5a"><path d="M175 530l58-158 58 158z"/><path d="M920 530l60-160 60 160z"/></g><g fill="#745d8b"><circle cx="245" cy="560" r="12"/><circle cx="280" cy="568" r="11"/><circle cx="915" cy="560" r="12"/><circle cx="950" cy="568" r="11"/></g><path d="M20 625c215-70 405-70 590 0s380 68 570-4" fill="none" stroke="#8e806e" stroke-width="22" stroke-linecap="round"/></svg>