<svg xmlns="http://www.w3.org/2000/svg" viewBox="0 0 1200 800" role="img" aria-labelledby="title desc"><title id="title">Circuit of The Americas parking orientation diagram</title><desc id="desc">TexasDefined schematic showing major 2026 COTA event parking lots around the circuit. Not to scale.</desc><rect width="1200" height="800" fill="#f7f4ed"/><path d="M250 340 C320 150 660 110 880 230 C1040 320 940 520 740 565 C560 610 360 560 285 470 C245 423 225 385 250 340 Z" fill="none" stroke="#34312d" stroke-width="18"/><g font-family="Arial,sans-serif" text-anchor="middle" fill="#24211e"><text x="600" y="360" font-size="42" font-weight="700">CIRCUIT OF THE AMERICAS</text><text x="600" y="404" font-size="18">SCHEMATIC · NOT TO SCALE</text></g><path d="M100 650 H1100" stroke="#34312d" stroke-width="13"/><text x="510" y="688" font-family="Arial,sans-serif" fill="#34312d" font-size="20" font-weight="700">COTA BLVD / FM 812 APPROACH</text><g stroke="#725b3b" stroke-width="4" fill="#e8dcc6"><rect x="170" y="195" width="120" height="95" rx="12"/><rect x="320" y="105" width="120" height="95" rx="12"/><rect x="475" y="95" width="120" height="95" rx="12"/><rect x="780" y="145" width="120" height="95" rx="12"/><rect x="905" y="270" width="120" height="95" rx="12"/><rect x="810" y="510" width="120" height="95" rx="12"/><rect x="215" y="520" width="120" height="95" rx="12"/></g><g font-family="Arial,sans-serif" text-anchor="middle" fill="#34312d" font-weight="700"><text x="230" y="250" font-size="29">LOT T</text><text x="380" y="160" font-size="29">LOT C</text><text x="535" y="150" font-size="29">LOT F</text><text x="840" y="200" font-size="29">LOT K</text><text x="965" y="325" font-size="29">LOT L</text><text x="870" y="565" font-size="29">LOT R</text><text x="275" y="575" font-size="25">A / N AREA</text></g><text x="430" y="500" font-family="Arial,sans-serif" fill="#5b544b" font-size="16">2026 F1 parking includes C, F, K, L, R and T; other lots vary by event.</text><g transform="translate(1100 85)" font-family="Arial,sans-serif" text-anchor="middle" fill="#34312d"><path d="M0 52V0L-13 21M0 0L13 21" fill="none" stroke="#34312d" stroke-width="6"/><text y="78" font-size="20" font-weight="700">N</text></g><text x="38" y="772" font-family="Arial,sans-serif" fill="#5b544b" font-size="15">TexasDefined original orientation diagram · verified 2026-09-11 against current COTA parking pages and approach guidance · use the event-specific map before travel</text></svg>