<svg xmlns="http://www.w3.org/2000/svg" viewBox="0 0 1200 800" role="img" aria-labelledby="title desc"><title id="title">Allen ISD Eagle Stadium parking orientation diagram</title><desc id="desc">TexasDefined schematic showing Eagle Stadium, the east fan-parking area highlighted by Allen ISD, surrounding stadium parking, Rivercrest Boulevard, Exchange Parkway, Greenville Avenue and the Gate D officials area. Not to scale; event assignments can vary.</desc><rect width="1200" height="800" fill="#f7f4ed"/><rect x="100" y="80" width="1000" height="630" rx="25" fill="#eee9df" stroke="#34312d" stroke-width="7"/><g stroke="#34312d" stroke-width="11" fill="none"><path d="M120 120 H1080"/><path d="M170 100 V690"/><path d="M1030 100 V690"/><path d="M120 665 H1080"/></g><g font-family="Arial,sans-serif" fill="#34312d" font-size="18" font-weight="700"><text x="600" y="110" text-anchor="middle">EXCHANGE PARKWAY / EAST EXCHANGE DRIVE</text><text x="132" y="410" transform="rotate(-90 132 410)" text-anchor="middle">RIVERCREST BOULEVARD</text><text x="1065" y="410" transform="rotate(-90 1065 410)" text-anchor="middle">GREENVILLE AVENUE / SH 5</text></g><rect x="450" y="205" width="300" height="365" rx="115" fill="#d8d2c4" stroke="#34312d" stroke-width="7"/><rect x="520" y="248" width="160" height="278" rx="18" fill="#dfe8d5" stroke="#725b3b" stroke-width="4"/><g font-family="Arial,sans-serif" fill="#34312d" text-anchor="middle"><text x="600" y="370" font-size="33" font-weight="700">EAGLE</text><text x="600" y="410" font-size="33" font-weight="700">STADIUM</text><text x="600" y="445" font-size="17">Allen ISD</text></g><g fill="#e8dcc6" stroke="#725b3b" stroke-width="4"><rect x="785" y="170" width="205" height="420" rx="18"/><rect x="205" y="215" width="205" height="335" rx="18"/><rect x="455" y="145" width="290" height="48" rx="14"/></g><g font-family="Arial,sans-serif" fill="#34312d" text-anchor="middle"><text x="888" y="342" font-size="26" font-weight="700">EAST FAN</text><text x="888" y="376" font-size="23">PARKING AREA</text><text x="888" y="408" font-size="15">AISD playoff packet</text><text x="307" y="347" font-size="23" font-weight="700">STADIUM PARKING</text><text x="307" y="379" font-size="17">Event assignment varies</text><text x="600" y="175" font-size="17" font-weight="700">NORTH / GATE D OFFICIALS AREA</text></g><g stroke="#725b3b" stroke-width="6" fill="none"><path d="M1030 210 H990"/><path d="M1030 500 H990"/><path d="M600 120 V145"/><path d="M170 315 H205"/></g><g font-family="Arial,sans-serif" fill="#5b544b" font-size="15" text-anchor="middle"><text x="600" y="625">5,034 total spaces documented by Allen ISD · 57 accessible spaces near Main Entrance and Gates A, C and D</text><text x="600" y="748" font-size="16">Use current Allen ISD event instructions for lot charges, team/band staging and any temporary traffic controls.</text></g><g transform="translate(1110 105)" font-family="Arial,sans-serif" text-anchor="middle" fill="#34312d"><path d="M0 52V0L-13 21M0 0L13 21" fill="none" stroke="#34312d" stroke-width="6"/><text y="78" font-size="20" font-weight="700">N</text></g><text x="35" y="790" font-family="Arial,sans-serif" fill="#5b544b" font-size="14">TexasDefined original orientation diagram · verified 2026-09-11 against current Allen ISD stadium resources and official parking diagrams</text></svg>