<svg xmlns="http://www.w3.org/2000/svg" viewBox="0 0 1200 800" role="img" aria-labelledby="title desc"><title id="title">Moody Coliseum SMU parking orientation diagram</title><desc id="desc">TexasDefined schematic showing Moody Coliseum and current SMU basketball parking garages. Not to scale.</desc><rect width="1200" height="800" fill="#f7f4ed"/><g fill="none" stroke="#34312d" stroke-width="13"><path d="M110 165 H1090"/><path d="M105 655 H1090"/><path d="M280 100 V705"/><path d="M950 100 V705"/></g><g font-family="Arial,sans-serif" fill="#34312d" font-size="20" font-weight="700"><text x="490" y="148">SMU BOULEVARD</text><text x="475" y="692">BINKLEY AVENUE / CAMPUS SOUTH</text><text x="245" y="430" transform="rotate(-90 245 430)">AIRLINE ROAD</text><text x="985" y="430" transform="rotate(-90 985 430)">EAST CAMPUS</text></g><rect x="530" y="285" width="300" height="215" rx="48" fill="#d8d2c4" stroke="#34312d" stroke-width="7"/><g font-family="Arial,sans-serif" text-anchor="middle" fill="#24211e"><text x="680" y="382" font-size="42" font-weight="700">MOODY</text><text x="680" y="428" font-size="42" font-weight="700">COLISEUM</text></g><g fill="#e8dcc6" stroke="#725b3b" stroke-width="5"><rect x="330" y="210" width="165" height="125" rx="14"/><rect x="330" y="385" width="165" height="125" rx="14"/><rect x="335" y="550" width="220" height="85" rx="14"/></g><g font-family="Arial,sans-serif" text-anchor="middle" fill="#34312d" font-weight="700"><text x="412" y="265" font-size="27">MOODY GARAGE</text><text x="412" y="295" font-size="16">WOMEN / CREDENTIAL</text><text x="412" y="440" font-size="27">MEADOWS GARAGE</text><text x="412" y="470" font-size="16">MEN'S GENERAL</text><text x="445" y="588" font-size="27">BINKLEY GARAGE</text><text x="445" y="615" font-size="16">MEN'S GENERAL</text></g><g transform="translate(1090 90)" font-family="Arial,sans-serif" text-anchor="middle" fill="#34312d"><path d="M0 52V0L-13 21M0 0L13 21" fill="none" stroke="#34312d" stroke-width="6"/><text y="78" font-size="20" font-weight="700">N</text></g><text x="42" y="772" font-family="Arial,sans-serif" fill="#5b544b" font-size="15">TexasDefined original orientation diagram · verified 2026-09-11 against SMU 2026-27 basketball parking guidance · event assignments differ</text></svg>