<svg xmlns="http://www.w3.org/2000/svg" viewBox="0 0 1200 800" role="img" aria-labelledby="title desc"><title id="title">Riders Field parking orientation diagram</title><desc id="desc">TexasDefined schematic showing Riders Field, Lot B, garages E and F and major access roads. Not to scale.</desc><rect width="1200" height="800" fill="#f7f4ed"/><g fill="none" stroke="#34312d" stroke-width="13"><path d="M110 625 H1090"/><path d="M120 130 H1090"/><path d="M185 90 V690"/><path d="M1010 90 V690"/></g><g font-family="Arial,sans-serif" fill="#34312d" font-size="20" font-weight="700"><text x="485" y="115">GAYLORD PARKWAY</text><text x="500" y="665">DIAMOND DRIVE</text><text x="150" y="430" transform="rotate(-90 150 430)">DALLAS PARKWAY / TOLLWAY</text><text x="1040" y="440" transform="rotate(-90 1040 440)">PARKWOOD BLVD</text></g><path d="M455 285 Q620 195 785 285 L785 500 Q620 590 455 500 Z" fill="#d8d2c4" stroke="#34312d" stroke-width="7"/><g font-family="Arial,sans-serif" text-anchor="middle" fill="#24211e"><text x="620" y="375" font-size="44" font-weight="700">RIDERS FIELD</text><text x="620" y="415" font-size="18">NOT TO SCALE</text></g><g fill="#e8dcc6" stroke="#725b3b" stroke-width="5"><rect x="250" y="405" width="175" height="160" rx="14"/><rect x="315" y="170" width="175" height="105" rx="14"/><rect x="510" y="155" width="175" height="105" rx="14"/><rect x="805" y="330" width="145" height="115" rx="14"/></g><g font-family="Arial,sans-serif" text-anchor="middle" fill="#34312d" font-weight="700"><text x="337" y="468" font-size="30">LOT B</text><text x="337" y="500" font-size="17">HOME PLATE · ADA</text><text x="402" y="225" font-size="27">GARAGE F</text><text x="597" y="210" font-size="27">GARAGE E</text><text x="877" y="388" font-size="25">LOT D</text></g><g transform="translate(1100 85)" font-family="Arial,sans-serif" text-anchor="middle" fill="#34312d"><path d="M0 52V0L-13 21M0 0L13 21" fill="none" stroke="#34312d" stroke-width="6"/><text y="78" font-size="20" font-weight="700">N</text></g><text x="45" y="772" font-family="Arial,sans-serif" fill="#5b544b" font-size="15">TexasDefined original orientation diagram · verified 2026-09-11 against the RoughRiders official parking PDF · event inventory can change</text></svg>