<svg xmlns="http://www.w3.org/2000/svg" viewBox="0 0 1200 800" role="img" aria-labelledby="title desc"><title id="title">2026 Valero Texas Open parking and shuttle diagram</title><desc id="desc">TexasDefined event-specific diagram showing the two public spectator parking locations, complimentary shuttle connection to the Valero Texas Open at TPC San Antonio, and the designated JW Marriott rideshare point. Diagrammatic and not to scale.</desc><rect width="1200" height="800" fill="#f7f4ed"/><text x="600" y="70" font-family="Arial,sans-serif" fill="#34312d" font-size="34" font-weight="700" text-anchor="middle">2026 VALERO TEXAS OPEN — ARRIVAL PLAN</text><text x="600" y="102" font-family="Arial,sans-serif" fill="#5b544b" font-size="18" text-anchor="middle">April 2–5 spectator parking · diagrammatic, not to scale</text><rect x="440" y="285" width="320" height="210" rx="34" fill="#d8d2c4" stroke="#34312d" stroke-width="7"/><g font-family="Arial,sans-serif" fill="#34312d" text-anchor="middle"><text x="600" y="360" font-size="30" font-weight="700">TPC SAN ANTONIO</text><text x="600" y="398" font-size="24">Valero Texas Open</text><text x="600" y="432" font-size="17">Main spectator entrance</text></g><g fill="#e8dcc6" stroke="#725b3b" stroke-width="4"><rect x="80" y="180" width="300" height="185" rx="22"/><rect x="80" y="470" width="300" height="185" rx="22"/><rect x="820" y="225" width="300" height="185" rx="22"/></g><g font-family="Arial,sans-serif" fill="#34312d" text-anchor="middle"><text x="230" y="225" font-size="23" font-weight="700">RIVER CITY</text><text x="230" y="255" font-size="23" font-weight="700">COMMUNITY CHURCH</text><text x="230" y="293" font-size="18">Spectator + ADA parking</text><text x="230" y="321" font-size="15">16765 Lookout Rd · Selma</text><text x="230" y="345" font-size="15">Complimentary shuttle</text><text x="230" y="515" font-size="25" font-weight="700">UTSA EAST CAMPUS LOT</text><text x="230" y="553" font-size="18">Spectator + ADA parking</text><text x="230" y="581" font-size="15">Enter campus from Valero Way</text><text x="230" y="605" font-size="15">Complimentary shuttle</text><text x="970" y="270" font-size="24" font-weight="700">JW MARRIOTT</text><text x="970" y="301" font-size="21">Hill Country Resort</text><text x="970" y="339" font-size="18">Rideshare drop-off / pickup</text><text x="970" y="367" font-size="15">Row 6 near tennis courts</text></g><g stroke="#725b3b" stroke-width="7" fill="none" stroke-linecap="round"><path d="M380 275 C430 275 440 315 470 340"/><path d="M380 560 C440 545 455 485 485 455"/></g><g fill="#725b3b"><path d="M475 342 l-20 -7 l9 -18 z"/><path d="M490 450 l-21 5 l2 -20 z"/></g><g font-family="Arial,sans-serif" fill="#725b3b" font-size="16" font-weight="700"><text x="405" y="258">FREE SHUTTLE</text><text x="402" y="535">FREE SHUTTLE</text></g><path d="M820 320 C790 330 770 345 748 360" stroke="#725b3b" stroke-width="6" fill="none" stroke-dasharray="12 10"/><text x="790" y="300" font-family="Arial,sans-serif" fill="#725b3b" font-size="15" font-weight="700" text-anchor="middle">RIDESHARE</text><rect x="430" y="565" width="340" height="92" rx="18" fill="#eee9df" stroke="#34312d" stroke-width="3"/><text x="600" y="597" font-family="Arial,sans-serif" fill="#34312d" font-size="17" font-weight="700" text-anchor="middle">EVENT-SPECIFIC PARKING</text><text x="600" y="624" font-family="Arial,sans-serif" fill="#5b544b" font-size="15" text-anchor="middle">Do not substitute ordinary TPC/JW Marriott parking.</text><text x="600" y="646" font-family="Arial,sans-serif" fill="#5b544b" font-size="15" text-anchor="middle">Recheck the tournament parking page for future years.</text><text x="35" y="785" font-family="Arial,sans-serif" fill="#5b544b" font-size="14">TexasDefined original event diagram · verified 2026-09-11 against Valero Texas Open 2026 parking and course resources</text></svg>