<svg xmlns="http://www.w3.org/2000/svg" viewBox="0 0 1600 900" role="img" aria-labelledby="title desc"><title id="title">Dallas Fort Worth skyline</title><desc id="desc">Editorial illustration of the Dallas skyline with Reunion Tower at sunset.</desc><defs><linearGradient id="sky" x1="0" y1="0" x2="0" y2="1"><stop offset="0" stop-color="#869cb4"/><stop offset=".62" stop-color="#e9b18f"/><stop offset="1" stop-color="#f5d6b2"/></linearGradient></defs><rect width="1600" height="900" fill="url(#sky)"/><circle cx="1280" cy="230" r="88" fill="#f6c783"/><rect y="610" width="1600" height="290" fill="#39463f"/><path d="M0 610 C250 560 460 590 680 565 C940 535 1210 570 1600 510 L1600 650 L0 650 Z" fill="#32413a"/><g fill="#364752"><rect x="360" y="300" width="95" height="310"/><rect x="480" y="215" width="105" height="395"/><rect x="605" y="350" width="80" height="260"/><rect x="720" y="250" width="120" height="360"/><rect x="875" y="190" width="90" height="420"/><rect x="1000" y="320" width="105" height="290"/></g><g stroke="#4d5f67" stroke-width="12"><line x1="510" y1="250" x2="510" y2="560"/><line x1="545" y1="250" x2="545" y2="560"/><line x1="755" y1="295" x2="755" y2="565"/><line x1="915" y1="225" x2="915" y2="565"/></g><g><line x1="1160" y1="290" x2="1160" y2="610" stroke="#52575c" stroke-width="26"/><circle cx="1160" cy="245" r="75" fill="#59676e"/><circle cx="1160" cy="245" r="53" fill="#b8a774"/><g fill="#e6d6a0"><circle cx="1160" cy="198" r="7"/><circle cx="1200" cy="222" r="7"/><circle cx="1200" cy="268" r="7"/><circle cx="1160" cy="292" r="7"/><circle cx="1120" cy="268" r="7"/><circle cx="1120" cy="222" r="7"/></g></g><path d="M0 750 Q420 690 850 745 T1600 720" fill="none" stroke="#79796d" stroke-width="24"/><path d="M0 795 Q420 735 850 790 T1600 765" fill="none" stroke="#d0b98c" stroke-width="7" opacity=".6"/></svg>