<svg xmlns="http://www.w3.org/2000/svg" viewBox="0 0 640 280" role="img" aria-labelledby="title desc"><title id="title">Largemouth bass baits and lures</title><desc id="desc">Educational silhouettes of a soft plastic, crankbait, spinnerbait and topwater lure used for largemouth bass.</desc><rect width="640" height="280" fill="#fbf7f0"/><g transform="translate(42 42)"><text x="0" y="0" font-family="system-ui,sans-serif" font-size="15" font-weight="700" fill="#30231b">Soft plastic</text><path d="M8 52c34-20 78-19 118 2 14 8 9 21-6 19-35-5-68-5-104 5-18 5-25-14-8-26z" fill="#c65a34"/><path d="M62 49q18 20 35 0" fill="none" stroke="#30231b" stroke-width="4"/></g><g transform="translate(338 42)"><text x="0" y="0" font-family="system-ui,sans-serif" font-size="15" font-weight="700" fill="#30231b">Crankbait</text><ellipse cx="70" cy="55" rx="48" ry="24" fill="#c65a34"/><path d="M26 58L0 74" stroke="#8b6a55" stroke-width="7"/><circle cx="91" cy="48" r="4" fill="#30231b"/><path d="M56 76v18m0 0-10 11m10-11 10 11m36-29v18m0 0-10 11m10-11 10 11" stroke="#30231b" stroke-width="3"/></g><g transform="translate(42 166)"><text x="0" y="0" font-family="system-ui,sans-serif" font-size="15" font-weight="700" fill="#30231b">Spinnerbait</text><path d="M25 63l33-34 34 32-22 12 23 15-36 31-34-31 23-15z" fill="none" stroke="#30231b" stroke-width="4"/><ellipse cx="82" cy="23" rx="16" ry="9" fill="#8b6a55"/><ellipse cx="110" cy="42" rx="18" ry="10" fill="#8b6a55"/><path d="M58 119l-18 25m23-23-5 27m10-28 11 24" stroke="#c65a34" stroke-width="4"/></g><g transform="translate(338 166)"><text x="0" y="0" font-family="system-ui,sans-serif" font-size="15" font-weight="700" fill="#30231b">Topwater</text><path d="M8 60c34-18 87-16 131 2-31 24-82 28-131 14z" fill="#c65a34"/><path d="M66 76v19m0 0-10 11m10-11 10 11m40-30v19m0 0-10 11m10-11 10 11" stroke="#30231b" stroke-width="3"/><path d="M0 55c39-9 89-8 145 4" fill="none" stroke="#9aafa7" stroke-width="3"/></g></svg>